<svg id="notifications" xmlns="http://www.w3.org/2000/svg" width="31.836" height="38.995" viewBox="0 0 31.836 38.995">
    <path id="notifications-2" data-name="notifications" d="M18.918,41a3.836,3.836,0,0,0,3.745-3.9H15.173A3.836,3.836,0,0,0,18.918,41ZM31.091,29.3V18.573A12.45,12.45,0,0,0,21.727,6.289V4.925A2.941,2.941,0,0,0,18.918,2a2.941,2.941,0,0,0-2.809,2.925V6.289A12.45,12.45,0,0,0,6.745,18.573V29.3L3,33.2v1.95H34.836V33.2Zm-3.745,1.95H10.491V18.573A8.57,8.57,0,0,1,18.918,9.8a8.57,8.57,0,0,1,8.427,8.774Z" transform="translate(-3 -2)" fill="#727c8e"/>
</svg>
