<svg xmlns="http://www.w3.org/2000/svg" width="34.151" height="34.151" viewBox="0 0 34.151 34.151">
    <g id="Icon_Camera" data-name="Icon Camera" transform="translate(-2097.235 -267.023)">
        <rect id="padding" width="34.151" height="34.151" transform="translate(2097.235 267.023)" fill="none"/>
        <path id="Icon_awesome-camera" data-name="Icon awesome-camera" d="M2130.287,276.509v17.763a2.962,2.962,0,0,1-2.961,2.953H2101.67a2.961,2.961,0,0,1-2.961-2.953V276.509a2.961,2.961,0,0,1,2.961-2.959h5.424l.762-2.039a2.958,2.958,0,0,1,2.768-1.909h7.74a2.958,2.958,0,0,1,2.768,1.919l.766,2.029h5.424a2.962,2.962,0,0,1,2.965,2.957Zm-8.387,8.881a7.4,7.4,0,1,0-7.4,7.4h0a7.407,7.407,0,0,0,7.4-7.4Zm-1.973,0a5.424,5.424,0,1,1-5.424-5.424h0a5.437,5.437,0,0,1,5.422,5.424Z" fill="#ddd"/>
    </g>
</svg>
