<?xml version="1.0" encoding="UTF-8"?>
<svg id="_레이어_2" data-name="레이어 2" xmlns="http://www.w3.org/2000/svg" xmlns:xlink="http://www.w3.org/1999/xlink" viewBox="0 0 28 28.16">
  <defs>
    <style>
      .cls-1 {
        fill: #f9e000;
      }

      .cls-1, .cls-2, .cls-3 {
        stroke-width: 0px;
      }

      .cls-4 {
        clip-path: url(#clippath-2);
      }

      .cls-5 {
        clip-path: url(#clippath-6);
      }

      .cls-2 {
        fill: none;
      }

      .cls-6 {
        clip-path: url(#clippath-7);
      }

      .cls-7 {
        clip-path: url(#clippath-1);
      }

      .cls-8 {
        clip-path: url(#clippath-4);
      }

      .cls-3 {
        fill: #371c1d;
      }

      .cls-9 {
        clip-path: url(#clippath);
      }

      .cls-10 {
        clip-path: url(#clippath-3);
      }

      .cls-11 {
        clip-path: url(#clippath-5);
      }
    </style>
    <clipPath id="clippath">
      <rect class="cls-2" width="28" height="28.16"/>
    </clipPath>
    <clipPath id="clippath-1">
      <path class="cls-2" d="m6.43,11.34c.02.24.21.43.45.45h0s1.04,0,1.04,0v3.51c0,.48,1.08.49,1.08,0v-3.48h1.03c.28-.01.49-.25.48-.53-.01-.26-.22-.47-.48-.48-.73,0-3.15-.02-3.15-.02-.27.02-.48.27-.45.54"/>
    </clipPath>
    <clipPath id="clippath-2">
      <rect class="cls-2" width="28" height="28.16"/>
    </clipPath>
    <clipPath id="clippath-3">
      <path class="cls-2" d="m11.85,11.98l.58,1.81h-1.2l.63-1.81Zm-.66-.84h.01c-.25.55-1.18,3.2-1.49,3.91-.22.51.73.92.95.42l.21-.73h1.89s-.06.03.19.69c.2.54,1.19.16.98-.37-.29-.77-1.3-3.54-1.49-3.92-.16-.21-.41-.33-.68-.31-.02,0-.04,0-.05,0-.22,0-.42.12-.53.31"/>
    </clipPath>
    <clipPath id="clippath-4">
      <rect class="cls-2" width="28" height="28.16"/>
    </clipPath>
    <clipPath id="clippath-5">
      <path class="cls-2" d="m14.76,10.85c-.24.04-.42.23-.46.46h.01s0,3.8,0,3.8c0,0-.08.58.41.58h2.08c.49,0,.48-1.04,0-1.04h-1.38v-3.34c-.05-.28-.29-.47-.56-.47-.03,0-.07,0-.1,0"/>
    </clipPath>
    <clipPath id="clippath-6">
      <rect class="cls-2" width="28" height="28.16"/>
    </clipPath>
    <clipPath id="clippath-7">
      <path class="cls-2" d="m17.44,11.15h-.01c.01.4-.01,3.97-.01,4.24,0,.42,1.07.42,1.07,0v-1.41l.31-.25,1.37,1.86c.27.36,1.14-.29.87-.66l-1.45-1.91s.98-1.06,1.37-1.45c.23-.22-.48-.93-.7-.71-.23.23-1.76,1.76-1.76,1.76,0,0,.01-.97,0-1.51,0-.2-.26-.3-.51-.3s-.55.11-.54.33"/>
    </clipPath>
  </defs>
  <g id="_레이어_1-2" data-name="레이어 1">
    <g>
      <g class="cls-9">
        <path class="cls-1" d="m28,21.89c0,3.45-2.78,6.25-6.22,6.27H6.22C2.78,28.15-.01,25.34,0,21.89V6.26C-.01,2.82,2.78.01,6.22,0h15.55c3.45.01,6.23,2.82,6.23,6.27v15.63Z"/>
        <path class="cls-3" d="m13.91,5.3c-5.56,0-10.07,3.56-10.07,7.96.16,2.99,2.02,5.62,4.78,6.77-.21.79-.76,2.85-.87,3.29-.14.54.2.54.42.39.17-.11,2.76-1.88,3.88-2.63.62.09,1.24.14,1.87.14,5.56,0,10.07-3.56,10.07-7.96s-4.51-7.96-10.07-7.96"/>
        <path class="cls-1" d="m6.89,11.8h1.04v3.51c0,.48,1.08.49,1.08,0v-3.48h1.03c.28-.02.49-.25.48-.53-.01-.26-.22-.47-.48-.48-.73,0-3.15-.02-3.15-.02-.27.02-.48.27-.45.54.02.24.21.43.45.45"/>
      </g>
      <g class="cls-7">
        <rect class="cls-1" x="6.28" y="10.8" width="4.41" height="5"/>
      </g>
      <g class="cls-4">
        <path class="cls-1" d="m11.85,11.98l.58,1.81h-1.2l.62-1.81Zm-.65-.85c-.25.56-1.18,3.22-1.49,3.92-.22.51.73.92.95.42l.21-.73h1.89s-.07.03.19.69c.2.54,1.19.16.99-.37-.29-.77-1.3-3.54-1.49-3.92-.16-.21-.41-.33-.68-.31-.24-.02-.47.1-.58.31"/>
      </g>
      <g class="cls-10">
        <rect class="cls-1" x="9.5" y="10.82" width="4.65" height="5.15"/>
      </g>
      <g class="cls-8">
        <path class="cls-1" d="m14.31,11.3v3.81s-.08.58.41.58h2.08c.49,0,.48-1.04,0-1.04h-1.38v-3.34c-.05-.31-.34-.52-.65-.47-.24.04-.43.23-.47.47"/>
      </g>
      <g class="cls-11">
        <rect class="cls-1" x="14.23" y="10.82" width="3.06" height="4.86"/>
      </g>
      <g class="cls-5">
        <path class="cls-1" d="m17.43,11.16c.01.4-.01,3.97-.01,4.24,0,.42,1.07.42,1.06,0v-1.41l.31-.25,1.37,1.86c.27.36,1.15-.29.87-.66l-1.45-1.91s.98-1.07,1.37-1.45c.23-.22-.47-.93-.7-.71-.23.22-1.76,1.76-1.76,1.76,0,0,.01-.97,0-1.51,0-.2-.26-.3-.51-.3s-.55.11-.54.33"/>
      </g>
      <g class="cls-6">
        <rect class="cls-1" x="17.41" y="10.65" width="3.89" height="5.32"/>
      </g>
    </g>
  </g>
</svg>