<?xml version="1.0" encoding="UTF-8"?>
<svg id="_레이어_2" data-name="레이어 2" xmlns="http://www.w3.org/2000/svg" viewBox="0 0 110.99 116.64">
  <defs>
    <style>
      .cls-1 {
        fill: #7800ce;
      }

      .cls-1, .cls-2, .cls-3 {
        stroke-width: 0px;
      }

      .cls-2 {
        fill: #fff;
      }

      .cls-3 {
        fill: #eee93a;
      }
    </style>
  </defs>
  <g id="_레이어_1-2" data-name="레이어 1">
    <g>
      <g>
        <path class="cls-1" d="m0,55.49c0,30.65,24.84,55.49,55.49,55.49s55.49-24.85,55.49-55.49S86.14,0,55.49,0,0,24.84,0,55.49"/>
        <path class="cls-1" d="m44.96,96.74s-22.7,16.66-38.82,19.9c0,0,15.63-16.3,12.86-28.07l25.96,8.17Z"/>
      </g>
      <path class="cls-3" d="m27.72,38.86h-5.49l-1.14,2.97h-1.57l4.7-12.01h1.58l4.69,12.01h-1.64l-1.14-2.97Zm-.53-1.39l-2.21-5.8-2.22,5.8h4.43Zm8.45,4.57c-2.42,0-4.19-1.92-4.19-4.5s1.75-4.5,4.16-4.5c1.92,0,3.43,1.3,3.83,3.09h-1.5c-.33-1.02-1.18-1.72-2.34-1.72-1.62,0-2.72,1.35-2.72,3.13s1.1,3.13,2.72,3.13c1.15,0,2.04-.72,2.37-1.75h1.5c-.44,1.86-1.94,3.12-3.83,3.12Zm5.49-4.5c0-2.56,1.72-4.5,4.03-4.5,1.48,0,2.48.75,2.89,1.48v-1.27h1.47v8.58h-1.47v-1.28c-.41.73-1.41,1.48-2.89,1.48-2.31,0-4.03-1.93-4.03-4.5Zm6.95,0c0-1.78-1.14-3.13-2.79-3.13s-2.72,1.35-2.72,3.13,1.08,3.13,2.72,3.13,2.79-1.35,2.79-3.13Zm3.6,0c0-2.56,1.72-4.5,4.03-4.5,1.48,0,2.48.75,2.89,1.48v-5.08h1.47v12.39h-1.47v-1.28c-.41.73-1.41,1.48-2.89,1.48-2.31,0-4.03-1.93-4.03-4.5Zm6.95,0c0-1.78-1.14-3.13-2.79-3.13s-2.72,1.35-2.72,3.13,1.08,3.13,2.72,3.13,2.79-1.35,2.79-3.13Zm3.6,0c0-2.58,1.71-4.5,4.09-4.5s4.08,1.92,4.08,4.5c0,.2,0,.42-.03.63h-6.67c.16,1.47,1.17,2.56,2.62,2.56,1.11,0,1.98-.54,2.28-1.24h1.5c-.44,1.48-1.91,2.55-3.78,2.55-2.38,0-4.09-1.92-4.09-4.5Zm4.09-3.19c-1.47,0-2.47,1.08-2.62,2.56h5.26c-.17-1.5-1.17-2.56-2.64-2.56Zm7.69-1.09v1.21c.37-.63,1.1-1.42,2.47-1.42,1.21,0,2.14.7,2.54,1.8.48-1.08,1.51-1.8,2.89-1.8,1.74,0,2.99,1.39,2.99,3.57v5.22h-1.47v-4.96c0-1.54-.71-2.47-1.87-2.47-1.23,0-2.11,1.26-2.11,2.82v4.62h-1.47v-4.9c0-1.6-.73-2.53-1.87-2.53-1.21,0-2.11,1.26-2.11,2.8v4.63h-1.47v-8.58h1.47Zm20.53,0l-5.09,12.22h-1.48l1.61-3.82-3.49-8.4h1.61l2.62,6.75,2.69-6.75h1.52Z"/>
      <path class="cls-2" d="m42.27,56.39h-20.82v-4.84h7.34v-2.66h6.13v2.66h7.34v4.84Zm-19.75,7.09c0-4.13,4.28-6.3,9.34-6.3s9.34,2.18,9.34,6.3-4.28,6.3-9.34,6.3-9.34-2.14-9.34-6.3Zm.78,7.43h27.02v10.96h-6.13v-5.67h-20.89v-5.29Zm4.95-7.43c0,1.09,1.43,1.8,3.6,1.8s3.6-.71,3.6-1.8-1.43-1.8-3.6-1.8-3.6.71-3.6,1.8Zm25.63-1.24h-3.56v7.54h-6.02v-20.34h6.02v6.64h3.56v6.15Zm32.93,13.96v5.29h-27.66v-10.17h4.85v-3.19h-7.27v-4.88h14.01c2.82,0,5.99-.3,7.88-1.16v4.88c-1.89.86-4.95,1.16-7.98,1.16h-.64v4.84h-4.81v3.23h21.64Zm-28.59-20.56c0-4.35,3.85-6.53,9.34-6.53s9.34,2.18,9.34,6.53-3.85,6.53-9.34,6.53-9.34-2.18-9.34-6.53Zm5.81,0c0,1.28,1.39,1.88,3.53,1.88s3.53-.6,3.53-1.88-1.39-1.88-3.53-1.88-3.53.6-3.53,1.88Zm16.33,13.4v-19.59h6.02v24.88h-6.02v-.9h-7.84v-4.39h7.84Z"/>
    </g>
  </g>
</svg>