<svg id="그룹_5192" data-name="그룹 5192" xmlns="http://www.w3.org/2000/svg" xmlns:xlink="http://www.w3.org/1999/xlink" width="217.343" height="65.624" viewBox="0 0 217.343 65.624">
    <defs>
        <clipPath id="clip-path">
            <rect id="사각형_38" data-name="사각형 38" width="217.343" height="65.624" fill="none"/>
        </clipPath>
        <clipPath id="clip-path-3">
            <rect id="사각형_35" data-name="사각형 35" width="55.992" height="46.398" fill="none"/>
        </clipPath>
    </defs>
    <g id="그룹_286" data-name="그룹 286" clip-path="url(#clip-path)">
        <g id="그룹_285" data-name="그룹 285">
            <g id="그룹_284" data-name="그룹 284" clip-path="url(#clip-path)">
                <path id="패스_733" data-name="패스 733" d="M12.7,13.482C9.4,13.482,7.546,14.964,7.525,17c-.021,2.225,2.329,3.222,5.047,3.816l2.828.678c5.393,1.207,9.418,3.875,9.439,8.981-.021,5.615-4.5,9.218-12.18,9.2C5.045,39.691.195,36.257,0,29.669H6.351c.218,3.093,2.74,4.661,6.221,4.661,3.436,0,5.655-1.568,5.655-3.857,0-2.1-1.958-3.071-5.4-3.9l-3.436-.8C4.089,24.5.826,21.914.826,17.423.8,11.851,5.85,8.143,12.746,8.143c6.982,0,11.57,3.771,11.659,9.2H18.14C17.88,14.9,15.9,13.482,12.7,13.482" transform="translate(0 8.483)" fill="#231815"/>
                <path id="패스_734" data-name="패스 734" d="M14.033,12.258h6.133v4.026h.262A6.626,6.626,0,0,1,27,11.962c3.241,0,5.655,1.674,6.437,4.322h.218c.979-2.607,3.677-4.322,7.135-4.322,4.372,0,7.439,2.818,7.439,7.838V35.266H41.787V21.029c.021-2.628-1.587-3.9-3.7-3.9-2.415,0-3.851,1.631-3.827,4.067V35.266H28V20.86a3.459,3.459,0,0,0-3.654-3.728c-2.2,0-3.895,1.715-3.872,4.322V35.266H14.033Z" transform="translate(15.382 12.461)" fill="#231815"/>
                <path id="패스_735" data-name="패스 735" d="M41.171,21.75c1.7-.106,4.873-.255,5.873-.3V19.588c-.023-1.927-1.371-3.03-3.786-3.05-2.2.02-3.565.974-3.913,2.542H33.21c.392-3.983,3.96-7.117,10.223-7.117,5.156,0,10.028,2.246,10.007,7.8V35.266H47.348V32.089h-.174c-1.153,2.119-3.415,3.622-6.917,3.6-4.523.02-7.852-2.309-7.873-6.864.021-5.127,4.24-6.8,8.787-7.077m.914,9.618c2.937-.02,4.98-1.887,4.959-4.322V25.372c-.979.043-3.742.192-4.829.276-2.239.192-3.654,1.229-3.654,3.009,0,1.758,1.457,2.691,3.524,2.711" transform="translate(35.496 12.461)" fill="#231815"/>
                <path id="패스_736" data-name="패스 736" d="M44.985,12.28h6.221v3.983h.262a5.731,5.731,0,0,1,5.7-4.322,10.309,10.309,0,0,1,2.046.212v5.592a11.386,11.386,0,0,0-2.742-.339,4.728,4.728,0,0,0-5.045,4.79V35.288H44.985Z" transform="translate(49.308 12.439)" fill="#231815"/>
                <path id="패스_737" data-name="패스 737" d="M67.366,19.622H62.929V30.851c-.021,1.844.914,2.289,2.22,2.33.652,0,1.784-.063,2.566-.127v4.957a21.028,21.028,0,0,1-3.438.212c-4.653.02-7.829-2.013-7.785-6.482V19.622H53.228v-4.7h3.264V9.409h6.437v5.509h4.437Z" transform="translate(58.343 9.801)" fill="#231815"/>
                <path id="패스_738" data-name="패스 738" d="M61.545,23.869c-.023-7.1,4.481-11.907,11.4-11.907,6.2,0,11.095,3.814,11.095,11.654v1.778H67.9c0,3.475,2.109,5.615,5.437,5.635,2.2-.02,3.762-.951,4.393-2.33h6.135c-.914,4.259-4.829,7.013-10.659,7.034-7.244-.02-11.682-4.575-11.659-11.864m16.4-2.415a4.632,4.632,0,0,0-4.871-4.788A5,5,0,0,0,67.9,21.454Z" transform="translate(67.46 12.461)" fill="#231815"/>
                <path id="패스_739" data-name="패스 739" d="M74.416,12.28h6.221v3.983H80.9a5.731,5.731,0,0,1,5.7-4.322,10.31,10.31,0,0,1,2.046.212v5.592a11.387,11.387,0,0,0-2.742-.339,4.728,4.728,0,0,0-5.045,4.79V35.288H74.416Z" transform="translate(81.568 12.439)" fill="#231815"/>
                <path id="패스_740" data-name="패스 740" d="M93.074,11.042C88.01,7.95,82.623,3.883,73.8,0a84.513,84.513,0,0,1,27.142,9.749,10.983,10.983,0,0,0-2.922-4.471s20.928,11.042,9.066,19c0,0,.172-5.362-7.4-11.044l3.289,25.26s-8.854-16.8-9.9-27.457" transform="translate(80.898)" fill="#ed9211"/>
                <path id="패스_741" data-name="패스 741" d="M91.824,2.2s-.459,1.782.822,2.3c2.345.947,2.926,1.884,3.058,2.193a2.525,2.525,0,0,1,.384,1.674A2.664,2.664,0,0,1,93.1,10.633,2.622,2.622,0,0,1,90.77,7.965C90.416,5.584,91.824,2.2,91.824,2.2" transform="translate(99.43 2.293)" fill="#ed9211"/>
                <g id="그룹_283" data-name="그룹 283" transform="translate(161.35 12.564)" style="mix-blend-mode: multiply;isolation: isolate">
                    <g id="그룹_282" data-name="그룹 282">
                        <g id="그룹_281" data-name="그룹 281" clip-path="url(#clip-path-3)">
                            <path id="패스_742" data-name="패스 742" d="M104.429,17.714C97.18,14.427,89.341,9.892,76.976,6.154c0,0,19.137.5,37.688,8.579a14.839,14.839,0,0,0-4.639-5.468s29.656,11.293,15.255,23.774c0,0,.662-5.539-10.359-11.862L113.3,52.552s-5.678-20.856-8.875-34.838" transform="translate(-76.977 -6.153)" fill="#009bd9"/>
                            <path id="패스_743" data-name="패스 743" d="M100.869,6.2s-.308,2.44,1.48,2.92c3.276.88,4.2,2.034,4.433,2.419a3.406,3.406,0,0,1,.792,2.162,3.576,3.576,0,0,1-7.127.321c-.874-3.105.421-7.822.421-7.822" transform="translate(-51.582 -6.108)" fill="#009bd9"/>
                        </g>
                    </g>
                </g>
                <path id="패스_744" data-name="패스 744" d="M1.1,27.366h.849V31.4h.084L6.2,27.366H7.31l-3.683,3.5,3.66,4.11H6.248L3.1,31.39,1.953,32.515v2.458H1.1Z" transform="translate(1.21 28.507)" fill="#4c4948"/>
                <rect id="사각형_36" data-name="사각형 36" width="3.637" height="0.672" transform="translate(8.649 59.34)" fill="#4c4948"/>
                <path id="패스_745" data-name="패스 745" d="M9.786,27.976c-1.2.006-2.019.588-2.01,1.388-.008.792.889,1.156,1.708,1.354l.9.221c1.088.27,2.373.774,2.369,2.05,0,1.235-1.126,2.17-3.029,2.164-1.788.006-2.911-.825-3.01-2.048h.87c.092.892,1,1.37,2.14,1.376,1.281-.006,2.2-.6,2.2-1.5,0-.757-.744-1.1-1.794-1.366L9.1,31.348C7.738,31,6.946,30.383,6.937,29.395c.008-1.239,1.251-2.087,2.87-2.08s2.777.851,2.836,2.017H11.8c-.086-.835-.9-1.35-2.019-1.356" transform="translate(7.358 28.453)" fill="#4c4948"/>
                <path id="패스_746" data-name="패스 746" d="M10.5,28.34h.788V29.4h.1a2.057,2.057,0,0,1,1.972-1.145,2.68,2.68,0,0,1,2.691,2.952,2.673,2.673,0,0,1-2.679,2.952,2.073,2.073,0,0,1-1.985-1.145h-.059v3.173H10.5Zm2.763,5.18c1.274-.006,1.968-1.019,1.975-2.321s-.69-2.291-1.975-2.291c-1.262,0-1.956.939-1.949,2.291s.706,2.315,1.949,2.321" transform="translate(11.506 29.434)" fill="#4c4948"/>
                <path id="패스_747" data-name="패스 747" d="M13.848,31.219a2.786,2.786,0,0,1,2.882-2.963,2.78,2.78,0,0,1,2.87,2.963,2.765,2.765,0,0,1-2.87,2.942,2.771,2.771,0,0,1-2.882-2.942m2.882,2.3a2.083,2.083,0,0,0,2.056-2.3,2.076,2.076,0,1,0-4.125,0,2.085,2.085,0,0,0,2.069,2.3" transform="translate(15.179 29.434)" fill="#4c4948"/>
                <path id="패스_748" data-name="패스 748" d="M17.45,28.34h.79v.882H18.3a1.876,1.876,0,0,1,1.759-.966c.132,0,.317.006.419.01v.725A2.146,2.146,0,0,0,20,28.95a1.537,1.537,0,0,0-1.721,1.429v3.667H17.45Z" transform="translate(19.127 29.434)" fill="#4c4948"/>
                <path id="패스_749" data-name="패스 749" d="M22.672,29.6H21.307v3.573a.839.839,0,0,0,.945.925l.539-.02v.672c-.132.01-.335.031-.61.031a1.533,1.533,0,0,1-1.7-1.429V29.6h-.97v-.61h.97V27.629h.824v1.364h1.365Z" transform="translate(21.388 28.781)" fill="#4c4948"/>
                <path id="패스_750" data-name="패스 750" d="M24.193,28.887c-.868-.006-1.478.414-1.471.966-.006.437.371.741,1.161.915l.991.21c1.094.237,1.645.745,1.639,1.513.006.972-.9,1.676-2.427,1.67-1.388.006-2.237-.555-2.4-1.564h.849c.132.619.658.935,1.543.935.975,0,1.608-.39,1.614-1-.006-.451-.358-.768-1.124-.925l-.994-.21c-1.094-.227-1.669-.755-1.675-1.513.006-.945.933-1.629,2.3-1.629,1.274.006,2.088.615,2.237,1.5h-.813c-.145-.535-.623-.872-1.423-.872" transform="translate(23.766 29.434)" fill="#4c4948"/>
                <path id="패스_751" data-name="패스 751" d="M24.849,28.335h.79v.882h.071a1.781,1.781,0,0,1,1.746-.956,1.765,1.765,0,0,1,1.759,1.031h.048a2,2,0,0,1,1.924-1.031,1.794,1.794,0,0,1,1.975,1.954v3.826h-.826V30.227a1.231,1.231,0,0,0-1.4-1.315,1.358,1.358,0,0,0-1.52,1.388v3.74h-.826V30.164a1.224,1.224,0,0,0-1.375-1.252A1.464,1.464,0,0,0,25.675,30.4v3.636h-.826Z" transform="translate(27.237 29.439)" fill="#4c4948"/>
                <path id="패스_752" data-name="패스 752" d="M32.072,30.757c.436-.02,1.482-.084,1.794-.094v-.537c.006-.766-.558-1.233-1.58-1.229-.849,0-1.421.341-1.578.862h-.849c.138-.9,1.126-1.5,2.475-1.5.97.006,2.346.37,2.346,1.933v3.857h-.813v-.882h-.048a2.159,2.159,0,0,1-2,1.009c-1.184,0-2.146-.625-2.14-1.723-.006-1.162,1.063-1.6,2.392-1.693m-.132,2.775a1.734,1.734,0,0,0,1.926-1.66v-.617c-.323.027-1.352.1-1.675.112-1.149.067-1.7.457-1.7,1.113,0,.674.616,1.051,1.446,1.051" transform="translate(32.532 29.434)" fill="#4c4948"/>
                <path id="패스_753" data-name="패스 753" d="M35.439,28.887c-.868-.006-1.478.414-1.471.966-.006.437.371.741,1.161.915l.991.21c1.094.237,1.645.745,1.639,1.513.006.972-.9,1.676-2.427,1.67-1.388.006-2.237-.555-2.4-1.564h.849c.132.619.658.935,1.543.935.975,0,1.608-.39,1.614-1-.006-.451-.358-.768-1.124-.925l-.994-.21c-1.094-.227-1.668-.755-1.675-1.513.006-.945.933-1.629,2.3-1.629,1.274.006,2.088.615,2.237,1.5h-.813c-.145-.535-.623-.872-1.423-.872" transform="translate(36.092 29.434)" fill="#4c4948"/>
                <path id="패스_754" data-name="패스 754" d="M39,29.6H37.631v3.573a.84.84,0,0,0,.947.925l.539-.02v.672c-.132.01-.335.031-.612.031a1.533,1.533,0,0,1-1.7-1.429V29.6h-.968v-.61h.968V27.629h.824v1.364H39Z" transform="translate(39.283 28.781)" fill="#4c4948"/>
                <path id="패스_755" data-name="패스 755" d="M38.033,31.231a2.8,2.8,0,0,1,2.859-2.975,2.645,2.645,0,0,1,2.775,2.818v.337H38.846a2.029,2.029,0,0,0,2.165,2.111,1.878,1.878,0,0,0,1.65-.768h.874a2.535,2.535,0,0,1-2.524,1.409,2.775,2.775,0,0,1-2.979-2.932m4.8-.441a1.84,1.84,0,0,0-1.926-1.88,2,2,0,0,0-2.05,1.88Z" transform="translate(41.688 29.434)" fill="#4c4948"/>
                <path id="패스_756" data-name="패스 756" d="M41.572,28.34h.79v.882h.059a1.876,1.876,0,0,1,1.759-.966c.132,0,.317.006.419.01v.725a2.146,2.146,0,0,0-.48-.041A1.537,1.537,0,0,0,42.4,30.379v3.667h-.826Z" transform="translate(45.567 29.434)" fill="#4c4948"/>
                <path id="패스_757" data-name="패스 757" d="M96.832,8.549S82.776,5.6,61.668,7.193L75.448.247s8.963,1.382,21.384,8.3" transform="translate(67.594 0.257)" fill="#e51f14"/>
            </g>
        </g>
    </g>
</svg>
