<?xml version="1.0" encoding="UTF-8"?>
<svg xmlns="http://www.w3.org/2000/svg" xmlns:xlink="http://www.w3.org/1999/xlink" viewBox="0 0 174.84 54.2">
  <defs>
    <style>
      .cls-1 {
        fill: #ee9311;
      }

      .cls-1, .cls-2, .cls-3, .cls-4, .cls-5, .cls-6 {
        stroke-width: 0px;
      }

      .cls-2 {
        fill: #3e3a39;
      }

      .cls-7 {
        isolation: isolate;
      }

      .cls-3 {
        fill: none;
      }

      .cls-8 {
        clip-path: url(#clippath);
      }

      .cls-4 {
        fill: #e61f14;
      }

      .cls-5 {
        fill: #009cda;
      }

      .cls-9 {
        mix-blend-mode: multiply;
      }

      .cls-6 {
        fill: #4c4948;
      }
    </style>
    <clipPath id="clippath">
      <rect class="cls-3" x="129.8" y="10.38" width="45.04" height="38.32"/>
    </clipPath>
  </defs>
  <g class="cls-7">
    <g id="_레이어_2" data-name="레이어 2">
      <g id="_레이어_1-2" data-name="레이어 1">
        <g>
          <path class="cls-2" d="m10.22,18.14c-2.66,0-4.15,1.23-4.17,2.91-.02,1.84,1.87,2.66,4.06,3.15l2.28.56c4.34,1,7.58,3.2,7.59,7.42-.02,4.64-3.62,7.61-9.8,7.59-6.12.02-10.03-2.82-10.18-8.26h5.11c.17,2.55,2.2,3.85,5,3.85s4.55-1.29,4.55-3.18c0-1.73-1.57-2.54-4.34-3.22l-2.76-.67c-4.27-1.05-6.89-3.18-6.89-6.89-.02-4.6,4.04-7.66,9.59-7.66s9.31,3.11,9.38,7.59h-5.04c-.21-2.01-1.8-3.19-4.37-3.19"/>
          <path class="cls-2" d="m23.66,20.42h4.93v3.33h.21c.81-2.22,2.73-3.57,5.28-3.57s4.55,1.38,5.18,3.57h.18c.79-2.15,2.96-3.57,5.74-3.57,3.52,0,5.98,2.33,5.98,6.47v12.77h-5.18v-11.76c.02-2.17-1.28-3.22-2.97-3.22-1.94,0-3.1,1.35-3.08,3.36v11.62h-5.04v-11.9c.02-1.87-1.17-3.08-2.94-3.08s-3.13,1.42-3.11,3.57v11.41h-5.18v-19Z"/>
          <path class="cls-2" d="m61.67,28.26c1.36-.09,3.92-.21,4.72-.24v-1.54c-.02-1.59-1.1-2.5-3.04-2.52-1.77.02-2.87.8-3.15,2.1h-4.93c.32-3.29,3.18-5.88,8.22-5.88,4.15,0,8.07,1.85,8.05,6.44v12.81h-4.9v-2.62h-.14c-.93,1.75-2.75,2.99-5.56,2.97-3.64.02-6.32-1.91-6.33-5.67.02-4.23,3.41-5.62,7.07-5.84m.74,7.94c2.36-.02,4.01-1.56,3.99-3.57v-1.38c-.79.03-3.01.16-3.88.23-1.8.16-2.94,1.02-2.94,2.48s1.17,2.22,2.83,2.24"/>
          <path class="cls-2" d="m75.85,20.42h5v3.29h.21c.68-2.33,2.45-3.57,4.58-3.57.52,0,1.19.07,1.65.17v4.62c-.49-.16-1.49-.28-2.21-.28-2.35,0-4.08,1.63-4.06,3.96v10.81h-5.18v-19Z"/>
          <path class="cls-2" d="m101.13,24.3h-3.57v9.27c-.02,1.52.74,1.89,1.79,1.93.52,0,1.43-.05,2.07-.1v4.09c-.56.09-1.49.19-2.76.17-3.74.02-6.3-1.66-6.26-5.35v-10.01h-2.62v-3.88h2.62v-4.55h5.18v4.55h3.57v3.88Z"/>
          <path class="cls-2" d="m103.78,30.01c-.02-5.86,3.6-9.83,9.17-9.83,4.99,0,8.92,3.15,8.92,9.62v1.47h-12.98c0,2.87,1.7,4.64,4.37,4.65,1.77-.02,3.03-.79,3.54-1.92h4.93c-.74,3.52-3.88,5.79-8.57,5.81-5.83-.02-9.4-3.78-9.38-9.8m13.19-2c-.02-2.31-1.61-3.97-3.92-3.95-2.38-.02-4.06,1.77-4.16,3.95h8.08Z"/>
          <path class="cls-2" d="m125.48,20.42h5v3.29h.21c.68-2.33,2.45-3.57,4.58-3.57.52,0,1.19.07,1.65.17v4.62c-.49-.16-1.49-.28-2.21-.28-2.35,0-4.08,1.63-4.06,3.96v10.81h-5.18v-19Z"/>
          <path class="cls-1" d="m139.95,9.12c-4.08-2.55-8.41-5.91-15.5-9.12,0,0,11.38,1.73,21.84,8.05,0,0-.57-1.99-2.35-3.69,0,0,16.84,9.12,7.29,15.7,0,0,.14-4.43-5.96-9.12l2.65,20.86s-7.12-13.87-7.97-22.68"/>
          <path class="cls-1" d="m153.86,3.71s-.37,1.47.66,1.9c1.89.78,2.35,1.56,2.46,1.81.25.4.37.88.31,1.38-.15,1.18-1.22,2.02-2.4,1.87-1.11-.14-1.91-1.11-1.88-2.2-.28-1.97.85-4.76.85-4.76"/>
          <g class="cls-9">
            <g class="cls-8">
              <path class="cls-5" d="m151.88,19.92c-5.83-2.71-12.14-6.46-22.08-9.55,0,0,15.39.41,30.32,7.09,0,0-1.08-2.55-3.73-4.52,0,0,23.86,9.33,12.27,19.64,0,0,.53-4.57-8.33-9.8l-1.3,25.91s-4.57-17.22-7.14-28.77"/>
              <path class="cls-5" d="m169.45,10.45s-.25,2.02,1.19,2.41c2.64.73,3.38,1.68,3.57,2,.39.49.64,1.11.64,1.79,0,1.59-1.29,2.88-2.88,2.88-1.5,0-2.72-1.15-2.85-2.61-.7-2.56.34-6.46.34-6.46"/>
            </g>
          </g>
          <polygon class="cls-6" points="57.48 46.15 58.16 46.15 58.16 49.48 58.23 49.48 61.58 46.15 62.47 46.15 59.51 49.03 62.45 52.43 61.62 52.43 59.08 49.47 58.16 50.4 58.16 52.43 57.48 52.43 57.48 46.15"/>
          <rect class="cls-6" x="62.58" y="49.01" width="2.93" height=".56"/>
          <path class="cls-6" d="m69.41,46.6c-.96,0-1.62.49-1.62,1.15,0,.65.72.95,1.38,1.12l.72.18c.88.22,1.91.64,1.9,1.69,0,1.02-.9,1.79-2.43,1.79-1.44,0-2.34-.68-2.43-1.69h.7c.07.74.8,1.13,1.72,1.14,1.03,0,1.77-.5,1.77-1.24,0-.62-.6-.91-1.44-1.13l-.83-.22c-1.1-.29-1.74-.8-1.74-1.61,0-1.02,1.01-1.72,2.31-1.72,1.31,0,2.23.7,2.28,1.67h-.67c-.07-.69-.72-1.12-1.63-1.12"/>
          <path class="cls-6" d="m73.32,47.72h.63v.88h.08c.21-.4.62-.94,1.59-.95,1.29,0,2.16.97,2.16,2.44s-.88,2.44-2.16,2.44c-.95,0-1.39-.54-1.6-.95h-.05v2.62h-.66v-6.48Zm2.22,4.28c1.02,0,1.58-.84,1.59-1.92,0-1.07-.55-1.89-1.59-1.89s-1.57.78-1.57,1.89c0,1.12.57,1.91,1.57,1.92"/>
          <path class="cls-6" d="m78.97,50.09c0-1.45.95-2.44,2.32-2.45,1.37,0,2.31,1,2.31,2.45,0,1.44-.94,2.43-2.31,2.43-1.37,0-2.32-.99-2.32-2.43m2.32,1.9c1.07,0,1.65-.87,1.65-1.9s-.59-1.91-1.65-1.91c-1.07,0-1.66.88-1.66,1.91s.59,1.9,1.66,1.9"/>
          <path class="cls-6" d="m85.04,47.72h.63v.73h.05c.21-.48.77-.8,1.41-.8.11,0,.26,0,.34,0v.6c-.05-.01-.22-.04-.39-.04-.8,0-1.39.5-1.39,1.18v3.03h-.66v-4.71Z"/>
          <path class="cls-6" d="m91.06,48.22h-1.1v2.95c0,.59.37.76.76.76l.43-.02v.56c-.11,0-.27.03-.49.03-.68,0-1.37-.4-1.37-1.18v-3.1h-.78v-.5h.78v-1.13h.66v1.13h1.1v.5Z"/>
          <path class="cls-6" d="m94.2,48.17c-.7,0-1.19.34-1.18.8,0,.36.3.61.93.76l.8.17c.88.2,1.32.62,1.32,1.25,0,.8-.72,1.38-1.95,1.38-1.12,0-1.8-.46-1.93-1.29h.68c.1.51.53.77,1.24.77.78,0,1.29-.32,1.3-.82,0-.37-.29-.63-.9-.76l-.8-.17c-.88-.19-1.34-.62-1.35-1.25,0-.78.75-1.35,1.85-1.35,1.02,0,1.68.51,1.8,1.24h-.65c-.12-.44-.5-.72-1.14-.72"/>
          <path class="cls-6" d="m97.52,47.72h.63v.73h.06c.21-.49.72-.79,1.4-.79s1.18.32,1.41.85h.04c.24-.52.79-.85,1.55-.85.97,0,1.59.56,1.59,1.61v3.16h-.66v-3.15c0-.73-.45-1.09-1.12-1.08-.78,0-1.22.48-1.22,1.15v3.09h-.66v-3.2c0-.62-.41-1.04-1.11-1.03-.71,0-1.25.51-1.24,1.23v3h-.66v-4.71Z"/>
          <path class="cls-6" d="m107.59,49.71c.35-.02,1.19-.07,1.44-.08v-.44c0-.63-.45-1.02-1.27-1.02-.68,0-1.15.28-1.27.71h-.68c.11-.75.9-1.24,1.99-1.24.78,0,1.89.3,1.89,1.6v3.18h-.65v-.73h-.04c-.21.4-.73.84-1.61.83-.95,0-1.73-.52-1.72-1.42,0-.96.86-1.32,1.92-1.4m-.11,2.29c.96,0,1.55-.62,1.55-1.37v-.51c-.26.02-1.09.08-1.35.09-.92.06-1.37.38-1.37.92s.5.87,1.16.87"/>
          <path class="cls-6" d="m113.16,48.17c-.7,0-1.19.34-1.18.8,0,.36.3.61.93.76l.8.17c.88.2,1.32.62,1.32,1.25,0,.8-.72,1.38-1.95,1.38-1.12,0-1.8-.46-1.93-1.29h.68c.1.51.53.77,1.24.77.78,0,1.29-.32,1.3-.82,0-.37-.29-.63-.9-.76l-.8-.17c-.88-.19-1.34-.62-1.35-1.25,0-.78.75-1.35,1.85-1.35,1.02,0,1.68.51,1.8,1.24h-.65c-.12-.44-.5-.72-1.14-.72"/>
          <path class="cls-6" d="m118.59,48.22h-1.1v2.95c0,.59.37.76.76.76l.43-.02v.56c-.11,0-.27.03-.49.03-.68,0-1.37-.4-1.37-1.18v-3.1h-.78v-.5h.78v-1.13h.66v1.13h1.1v.5Z"/>
          <path class="cls-6" d="m119.75,50.1c0-1.43.94-2.45,2.3-2.46,1.14,0,2.23.72,2.23,2.33v.28h-3.88c.03,1.07.7,1.74,1.74,1.74.72,0,1.14-.33,1.33-.63h.7c-.24.65-.98,1.17-2.03,1.16-1.48,0-2.4-.99-2.4-2.42m3.86-.36c0-.88-.64-1.56-1.55-1.55-.94,0-1.59.71-1.65,1.55h3.2Z"/>
          <path class="cls-6" d="m125.72,47.72h.63v.73h.05c.21-.48.77-.8,1.41-.8.11,0,.26,0,.34,0v.6c-.05-.01-.22-.04-.39-.04-.8,0-1.39.5-1.39,1.18v3.03h-.66v-4.71Z"/>
          <path class="cls-4" d="m132.27,7.27s-11.31-2.43-28.29-1.12L115.07.42s7.21,1.14,17.2,6.86"/>
        </g>
      </g>
    </g>
  </g>
</svg>